<svg width="471" height="124" viewBox="0 0 471 124" fill="none" xmlns="http://www.w3.org/2000/svg">
<path d="M48.1 80.2C47.7 80.3333 47.3333 80.2333 47 79.9C46.7333 79.6333 46.5 79.3 46.3 78.9C46.1667 78.5 46.0333 78.0667 45.9 77.6C45.7667 77.1333 45.7 76.6667 45.7 76.2C45.7 75.8667 45.7 75.5333 45.7 75.2C45.7 74.8667 45.6333 74.5667 45.5 74.3C45.4333 74.0333 45.3667 73.7667 45.3 73.5C45.3 73.3 45.3 73.1 45.3 72.9C45.2333 72.1667 44.9667 71.4667 44.5 70.8C44.4333 70.8 44.4 70.8 44.4 70.8C44.4 70.7333 44.4 70.7 44.4 70.7C43.8667 69.9667 43.4333 69.2 43.1 68.4C42.8333 67.6 42.6333 66.7667 42.5 65.9L41.6 60.5C41.5333 60.1 41.4667 59.7333 41.4 59.4C41.3333 59 41.2333 58.6 41.1 58.2C41.0333 57.6667 40.9333 57.1667 40.8 56.7C40.6667 56.2333 40.5333 55.7667 40.4 55.3L39.8 53.1V52.8C39.7333 52.3333 39.6333 51.8667 39.5 51.4C39.3667 50.9333 39.2667 50.4667 39.2 50C39.1333 49.4667 39.0333 48.9667 38.9 48.5C38.8333 47.9667 38.7333 47.4667 38.6 47C38.6 46.7333 38.5 46.5 38.3 46.3C38.1667 46.0333 38 45.7667 37.8 45.5C37.8 45.4333 37.7333 45.3333 37.6 45.2C36.8 44.6667 35.9 44.4667 34.9 44.6C34.6333 44.6 34.4333 44.6333 34.3 44.7C33.6333 44.8333 32.9667 45.0333 32.3 45.3C31.6333 45.5667 30.9667 45.8667 30.3 46.2C30.0333 46.3333 29.8667 46.4333 29.8 46.5C29.4667 46.7667 29.1 47 28.7 47.2C28.3 47.3333 27.9 47.4667 27.5 47.6C26.5 48 25.5 48.4667 24.5 49C23.5667 49.5333 22.6333 50.0667 21.7 50.6L21.1 51.1C20.7667 51.3667 20.4 51.6667 20 52C19.6 52.2667 19.2 52.5 18.8 52.7C18.2 53.1 17.9 53.6333 17.9 54.3C17.7667 55.2333 17.9 56.1333 18.3 57C18.6333 57.8667 18.8667 58.8667 19 60C19 60.4 19.0333 60.7 19.1 60.9C19.2333 61.1 19.3 61.3333 19.3 61.6C19.3667 61.8 19.4333 62 19.5 62.2L19.8 64.1C20 65.4333 19.8 66.7 19.2 67.9C19.1333 67.9667 19.0333 68.1333 18.9 68.4C18.3 69.4 17.9 70.5 17.7 71.7C17.6333 72.0333 17.5333 72.3667 17.4 72.7C17.2667 72.9667 17.0667 73.2667 16.8 73.6C16.5333 73.9333 16.1333 74.1333 15.6 74.2C15.0667 74.2667 14.6 74.0333 14.2 73.5C13.9333 73.0333 13.7333 72.4333 13.6 71.7C13.4667 71.0333 13.3333 70.5 13.2 70.1C13.0667 69.5667 12.8333 69.1667 12.5 68.9C11.9667 68.1667 11.4667 67.2333 11 66.1C10.7333 65.3667 10.5333 64.6333 10.4 63.9C10.2667 63.1667 10.1333 62.4333 10 61.7C9.8 60.7 9.6 59.7 9.4 58.7C9.2 57.7 8.96667 56.7 8.7 55.7C8.5 54.8333 8.26667 54 8 53.2C7.8 52.3333 7.6 51.4667 7.4 50.6L5.6 43.2C5.53333 42.4667 5.33333 41.7667 5 41.1C4.86667 40.5667 4.7 40.0333 4.5 39.5C4.3 38.9 4.13333 38.3333 4 37.8C3.93333 37.6 3.86667 37.4 3.8 37.2C3.73333 36.9333 3.66667 36.7 3.6 36.5C3.53333 36.1667 3.43333 35.8333 3.3 35.5C3.23333 35.1667 3.1 34.8333 2.9 34.5L2.6 33.4C2.46667 32.8667 2.33333 32.3333 2.2 31.8C2.06667 31.2667 1.93333 30.7667 1.8 30.3L1.7 29.9C1.7 29.5 1.66667 29.1 1.6 28.7C1.53333 28.3 1.46667 27.8667 1.4 27.4C1.4 27.3333 1.36667 27.3 1.3 27.3C1.3 27.2333 1.3 27.1667 1.3 27.1C1.23333 26.1667 1.16667 25.2333 1.1 24.3C1.03333 23.3 1 22.3333 1 21.4C0.933333 20.8 0.933333 20.4333 1 20.3C1.06667 20.1667 1.23333 19.8667 1.5 19.4C1.7 19.0667 1.93333 18.7 2.2 18.3C2.2 18.1667 2.26667 18.1 2.4 18.1C2.66667 18.0333 2.9 17.9333 3.1 17.8C3.3 17.6 3.5 17.4333 3.7 17.3C4.43333 16.8333 5.33333 16.6 6.4 16.6C6.6 16.6 6.73333 16.6333 6.8 16.7C7 16.7667 7.16667 16.8333 7.3 16.9C7.5 16.9667 7.7 17.0667 7.9 17.2C8.3 17.3333 8.63333 17.5667 8.9 17.9C9.23333 18.2333 9.53333 18.5667 9.8 18.9C10.2667 19.9 10.5333 20.8333 10.6 21.7C10.7333 22.5 10.9333 23.3 11.2 24.1L11.5 25.5C11.6333 26.1667 11.8 26.8333 12 27.5C12.2 28.1667 12.3667 28.8333 12.5 29.5C12.7 30.4333 12.8667 31.4 13 32.4C13.2 33.3333 13.4 34.2667 13.6 35.2L13.9 37C13.9 37.0667 13.9 37.1667 13.9 37.3C13.9667 37.3667 14 37.4333 14 37.5C14.1333 37.8333 14.3333 38 14.6 38C15.2667 38.0667 15.9333 38.1333 16.6 38.2C17.2667 38.2667 17.9333 38.2333 18.6 38.1C19.7333 37.9667 20.8333 37.8 21.9 37.6C22.9667 37.4 24.0333 37.2 25.1 37C26.5 36.7333 27.8667 36.4667 29.2 36.2C30.6 35.8667 32 35.5333 33.4 35.2L35.4 34.7C35.7333 34.5667 35.9 34.3333 35.9 34C35.8333 33.8 35.8 33.6 35.8 33.4C35.8 33.2 35.7667 33 35.7 32.8C35.3667 31.8667 35.1667 31 35.1 30.2C35.0333 29.8667 34.9667 29.5333 34.9 29.2C34.8333 28.8 34.7667 28.4333 34.7 28.1C34.5 26.9667 34.3 25.8333 34.1 24.7C33.9667 23.5 33.8333 22.3333 33.7 21.2C33.6333 20.6667 33.5667 20.1667 33.5 19.7C33.5 19.1667 33.4333 18.6667 33.3 18.2C33.2333 17.4667 33.1667 16.7333 33.1 16C33.1 15.2 33.1 14.4667 33.1 13.8C33.1 13.6667 33.1 13.5333 33.1 13.4C33.1667 13.2667 33.2333 13.1333 33.3 13C33.3667 12.7333 33.4333 12.5 33.5 12.3C33.5667 12.0333 33.6333 11.7667 33.7 11.5C33.8333 11.1 33.9667 10.7667 34.1 10.5C34.3 10.1667 34.5 9.86666 34.7 9.6C35.0333 9.4 35.3 9.13333 35.5 8.8C35.8333 8.46667 36.1333 8.26667 36.4 8.2L37.3 7.9C37.5 7.76666 37.7 7.73333 37.9 7.8C38.1667 7.8 38.4 7.83333 38.6 7.9C38.8 7.9 39.1 7.96666 39.5 8.1C39.7 8.16666 39.9 8.26667 40.1 8.4C40.3 8.53333 40.4667 8.7 40.6 8.9C40.7333 9.16666 40.9 9.43333 41.1 9.7C41.3667 9.9 41.5333 10.1667 41.6 10.5C41.7333 10.7 41.9 10.8 42.1 10.8C42.3 10.8667 42.4667 11.0667 42.6 11.4C42.6 11.4667 42.6 11.5333 42.6 11.6C42.6667 11.6667 42.7 11.7667 42.7 11.9C42.8333 12.4333 42.9667 13 43.1 13.6C43.2333 14.1333 43.3333 14.6667 43.4 15.2C43.4 15.4 43.4 15.6 43.4 15.8C43.4667 16 43.4667 16.2333 43.4 16.5V17.3C43.4667 17.8333 43.5333 18.4 43.6 19C43.6667 19.5333 43.7333 20.0667 43.8 20.6C43.8667 20.6667 43.9 20.8333 43.9 21.1C44.1 21.3667 44.2333 21.7 44.3 22.1C44.3667 22.5 44.4333 22.8667 44.5 23.2C44.5667 23.5333 44.6 23.9 44.6 24.3C44.6667 24.6333 44.7667 24.9667 44.9 25.3C44.9667 25.4333 45 25.6333 45 25.9C45 26.1667 45 26.4333 45 26.7C45.0667 26.9 45.1 27.1333 45.1 27.4C45.1 27.6667 45.1333 27.8333 45.2 27.9C45.2667 27.9667 45.3333 28.0667 45.4 28.2C45.5333 28.2667 45.5667 28.3667 45.5 28.5C45.5 28.6333 45.4667 28.7667 45.4 28.9C45.4 29.0333 45.4 29.1667 45.4 29.3V29.8C45.5333 30.1333 45.6333 30.5 45.7 30.9C45.7667 31.3 45.8333 31.6667 45.9 32C45.9 32.4 46.0333 32.6333 46.3 32.7L46.6 33C46.7333 33.1333 46.8 33.3667 46.8 33.7C46.6667 33.8333 46.6 33.9667 46.6 34.1C46.5333 34.2333 46.5333 34.4 46.6 34.6C46.8 34.8 46.8667 35 46.8 35.2C46.6667 35.4 46.6667 35.5667 46.8 35.7C46.9333 35.9 47 36.2 47 36.6V36.5C47.0667 36.5667 47.1667 36.6 47.3 36.6C47.6333 36.7333 47.7333 36.9667 47.6 37.3C47.6 37.4333 47.5333 37.5667 47.4 37.7C47.2 37.9 47.1333 38.0667 47.2 38.2C47.4 39.1333 47.6 40.0667 47.8 41C48 41.9333 48.1667 42.8667 48.3 43.8L48.6 46.2C48.7333 46.7333 48.8333 47.2667 48.9 47.8C48.9667 48.3333 49.0667 48.8667 49.2 49.4C49.2 49.7333 49.2667 50.1667 49.4 50.7C49.4 50.8333 49.5333 50.9 49.8 50.9C49.8 50.8333 49.8333 50.8 49.9 50.8C49.9667 50.8 50 50.8333 50 50.9C50.0667 50.9667 50.1667 51.1333 50.3 51.4L50.6 52.7C50.6667 52.8333 50.7 53 50.7 53.2C50.7 53.3333 50.7333 53.4667 50.8 53.6C50.8667 54 50.7333 54.3333 50.4 54.6C50.2 54.6667 50.1 54.8 50.1 55C50.1 55.0667 50.1 55.1 50.1 55.1C50.1667 55.1 50.2 55.1333 50.2 55.2C50.2667 55.2 50.3 55.1667 50.3 55.1H50.4C50.5333 55.0333 50.6667 55.0333 50.8 55.1C50.9333 55.1 51 55.1667 51 55.3C51.0667 55.5667 51.1333 55.8667 51.2 56.2C51.2667 56.5333 51.2667 56.7333 51.2 56.8C51.2 56.8 51.1667 56.8333 51.1 56.9C51.1 56.9 51.0667 56.9 51 56.9C50.7333 56.9 50.6 57.2 50.6 57.8C50.6667 58.4667 50.8667 59.1 51.2 59.7L51.8 60.6C52.3333 61.5333 52.6 62.5667 52.6 63.7C52.6 63.8333 52.5333 63.9667 52.4 64.1C52.2 64.3 52.1 64.5333 52.1 64.8C52.1 65.2 52.1333 65.5333 52.2 65.8C52.2 66.2667 52.1 66.6 51.9 66.8C51.7 67.0667 51.6 67.4 51.6 67.8C51.5333 68.4 51.3333 69 51 69.6C50.4 70.8 50.1 72.1333 50.1 73.6C50.0333 73.8667 50 74.1333 50 74.4C50 74.6667 50 74.9667 50 75.3C49.9333 75.5667 49.9 76 49.9 76.6V77.9C49.8333 78.1667 49.7667 78.4333 49.7 78.7C49.6333 78.9667 49.5333 79.2333 49.4 79.5C49.2 79.7667 48.9333 79.9667 48.6 80.1C48.5333 80.1 48.4667 80.1 48.4 80.1C48.3333 80.1667 48.2333 80.2 48.1 80.2ZM75.6609 74C75.5943 74 75.4943 73.9667 75.3609 73.9C75.2943 73.9 75.1943 73.9 75.0609 73.9C74.5943 73.9 74.2609 73.7 74.0609 73.3C73.7943 72.8333 73.5276 72.4333 73.2609 72.1C72.9943 71.7667 72.6943 71.4333 72.3609 71.1C72.0276 70.7667 71.7276 70.4 71.4609 70C71.2609 69.6 71.0609 69.2 70.8609 68.8C70.6609 68.4667 70.5609 68.1333 70.5609 67.8V66.8C70.5609 66.4667 70.5276 66.1333 70.4609 65.8C70.4609 65.4 70.4276 65.0333 70.3609 64.7C70.2276 64.1667 70.0943 63.6 69.9609 63C69.8943 62.4 69.7943 61.8333 69.6609 61.3C69.6609 61.1667 69.6276 61.0333 69.5609 60.9C69.5609 60.7 69.5609 60.5333 69.5609 60.4C69.4943 59.6667 69.3943 58.9333 69.2609 58.2C69.1276 57.4 68.9943 56.6333 68.8609 55.9C68.6609 54.5667 68.4276 53.2667 68.1609 52C67.9609 50.6667 67.7609 49.3667 67.5609 48.1L66.9609 44.8C66.8943 44.2667 66.6943 43.7 66.3609 43.1C65.9609 42.3667 65.6609 41.5667 65.4609 40.7C65.3943 40.3 65.2943 39.9333 65.1609 39.6C65.0276 39.2 64.8943 38.8 64.7609 38.4C64.5609 37.7333 64.3609 37.0667 64.1609 36.4C63.9609 35.7333 63.7943 35.0667 63.6609 34.4C63.5943 33.8667 63.4943 33.3333 63.3609 32.8C63.2276 32.2667 63.0943 31.7333 62.9609 31.2L62.3609 28.5C62.3609 28.3667 62.3276 28.2667 62.2609 28.2C62.1943 27.2667 62.0609 26.3333 61.8609 25.4C61.6609 24.4 61.4609 23.4333 61.2609 22.5C61.1943 21.9667 61.0943 21.3333 60.9609 20.6C60.8943 19.8 60.8943 19.1667 60.9609 18.7V17.7C61.0943 16.7667 61.3943 15.9 61.8609 15.1C62.3943 14.1667 63.2609 13.4333 64.4609 12.9C64.7943 12.7667 65.1276 12.6667 65.4609 12.6C65.7943 12.5333 66.0943 12.4667 66.3609 12.4C67.0943 12.3333 67.7943 12.4333 68.4609 12.7C69.1276 12.9 69.7943 13.2 70.4609 13.6C70.6609 13.7333 70.8276 13.9 70.9609 14.1C71.1609 14.4333 71.3609 14.7667 71.5609 15.1C71.8276 15.4333 71.9943 15.8 72.0609 16.2C72.1943 16.6 72.3276 17 72.4609 17.4C72.6609 17.8 72.8609 18.1667 73.0609 18.5C73.3943 19.1667 73.6276 19.8667 73.7609 20.6C73.8943 21.3333 74.0276 22.0667 74.1609 22.8C74.3609 23.8 74.4609 24.8667 74.4609 26V26.5C74.5943 27.1667 74.6609 27.8333 74.6609 28.5C74.6609 29.1 74.6609 29.7333 74.6609 30.4C74.7276 31.4667 74.8276 32.5333 74.9609 33.6C75.0943 34.6 75.2276 35.6667 75.3609 36.8L75.9609 41.5V41.7C76.0943 42.4333 76.2276 43.2 76.3609 44C76.5609 44.7333 76.6943 45.4667 76.7609 46.2C76.9609 47.3333 77.1609 48.5 77.3609 49.7C77.6276 50.8333 77.8276 51.9667 77.9609 53.1L78.5609 57.3C78.6943 57.9667 78.7943 58.6333 78.8609 59.3C78.9943 59.9667 79.1276 60.6333 79.2609 61.3C79.3943 61.9667 79.4943 62.6333 79.5609 63.3C79.6943 63.9 79.8276 64.5333 79.9609 65.2C80.0276 65.4667 80.0609 65.7333 80.0609 66C80.1276 66.2 80.1609 66.4333 80.1609 66.7C80.2276 67.7 80.0609 68.6667 79.6609 69.6C79.5943 69.8667 79.4276 70.1333 79.1609 70.4C78.8943 70.8 78.6609 71.0667 78.4609 71.2C77.9276 71.7333 77.5276 72.3 77.2609 72.9C77.2609 72.9667 77.1943 73.0667 77.0609 73.2C76.9943 73.3333 76.8943 73.4667 76.7609 73.6C76.4943 73.8667 76.1276 74 75.6609 74ZM108.451 123.6C108.051 123.6 107.717 123.433 107.451 123.1C107.184 122.833 106.984 122.567 106.851 122.3C106.651 121.767 106.551 121.267 106.551 120.8C106.484 120.267 106.417 119.7 106.351 119.1C106.351 118.567 106.317 118 106.251 117.4C106.251 116.333 106.151 115.3 105.951 114.3C105.951 113.9 105.917 113.5 105.851 113.1C105.784 112.7 105.751 112.3 105.751 111.9C105.817 111.767 105.817 111.6 105.751 111.4C105.751 111.267 105.751 111.1 105.751 110.9C105.684 110.567 105.651 110.233 105.651 109.9C105.651 109.633 105.651 109.367 105.651 109.1C105.584 108.833 105.551 108.5 105.551 108.1C105.351 107.433 105.317 106.767 105.451 106.1C105.584 105.1 105.551 104.267 105.351 103.6C105.284 103.133 105.251 102.7 105.251 102.3C105.251 101.9 105.251 101.5 105.251 101.1C105.184 100.7 105.151 100.3 105.151 99.9C105.151 99.5 105.151 99.1 105.151 98.7V97.9C105.151 97.7667 105.117 97.6 105.051 97.4C105.051 97.2667 105.051 97.1 105.051 96.9C105.051 96.3 105.051 95.7 105.051 95.1C105.051 94.5 104.984 93.9 104.851 93.3C104.784 92.8333 104.751 92.3667 104.751 91.9C104.817 91.5 104.851 91.1 104.851 90.7V87.9C104.851 87.5667 104.851 87.2 104.851 86.8C104.851 86.4667 104.884 86.1333 104.951 85.8C105.017 85.4667 105.017 85.1333 104.951 84.8C104.951 84.5333 104.951 84.2667 104.951 84C104.951 83.6667 104.917 83.3667 104.851 83.1C104.851 82.8333 104.884 82.5667 104.951 82.3C104.817 80.8333 104.617 79.4667 104.351 78.2L104.051 77.7C103.784 77.3667 103.517 77 103.251 76.6C103.051 76.2 102.784 75.8333 102.451 75.5C101.451 74.3667 100.551 73.1667 99.7508 71.9C99.5508 71.7 99.3841 71.5 99.2508 71.3C99.1174 71.0333 98.9841 70.7667 98.8508 70.5C98.7174 70.2333 98.5841 70 98.4508 69.8C98.3174 69.5333 98.1841 69.2667 98.0508 69C97.7841 68.4667 97.5174 67.9667 97.2508 67.5C96.9841 67.0333 96.7508 66.5667 96.5508 66.1C96.2841 65.5 96.0508 64.9 95.8508 64.3C95.7174 63.7 95.4841 63.1333 95.1508 62.6C95.0841 62.5333 95.0508 62.5 95.0508 62.5C95.0508 62.4333 95.0508 62.4 95.0508 62.4C94.6508 61 94.1508 59.7333 93.5508 58.6C93.4841 58.2667 93.3841 57.9667 93.2508 57.7C93.1841 57.3667 93.1174 57.0333 93.0508 56.7C92.9841 56.3667 92.8841 56.0333 92.7508 55.7C92.6841 55.3 92.5841 54.9333 92.4508 54.6C92.2508 53.9333 92.0841 53.2667 91.9508 52.6C91.8174 51.9333 91.6841 51.2667 91.5508 50.6C91.4841 50.4667 91.4508 50.2333 91.4508 49.9C91.4508 49.2333 91.4174 48.6 91.3508 48C91.2841 47.4 91.1841 46.7667 91.0508 46.1C90.8508 45.1 90.7508 44.0667 90.7508 43C90.7508 42.6667 90.7508 42.3333 90.7508 42C90.7508 41.6667 90.7174 41.3667 90.6508 41.1C90.5841 40.9 90.5508 40.7 90.5508 40.5C90.5508 40.2333 90.5508 39.9667 90.5508 39.7V36.5C90.5508 36.2333 90.5508 36 90.5508 35.8C90.5508 35.5333 90.5841 35.2667 90.6508 35C90.6508 34.8667 90.6508 34.7667 90.6508 34.7C90.7174 34.6333 90.7508 34.5667 90.7508 34.5C90.6841 33.7667 90.7174 33.0333 90.8508 32.3C90.9841 31.5667 91.0841 30.8333 91.1508 30.1C91.1508 29.7 91.1841 29.4 91.2508 29.2C91.3841 28.5333 91.4508 27.8667 91.4508 27.2C91.5174 26.5333 91.5508 25.8667 91.5508 25.2V24.9C91.6841 24.3 91.7174 23.7 91.6508 23.1C91.5841 22.5 91.5508 21.9333 91.5508 21.4C91.4841 20.8667 91.4174 20.3333 91.3508 19.8C91.2841 19.2667 91.2841 18.7333 91.3508 18.2C91.2841 17.6667 91.2508 17.1 91.2508 16.5C91.2508 15.9 91.2841 15.3 91.3508 14.7C91.3508 14.2333 91.3508 13.7667 91.3508 13.3C91.4174 12.7667 91.4841 12.2667 91.5508 11.8C91.5508 11.2667 91.5508 10.7667 91.5508 10.3C91.6174 9.76666 91.6841 9.23333 91.7508 8.7C91.8174 7.76667 92.0174 6.83333 92.3508 5.9C92.5508 5.16666 93.0174 4.46666 93.7508 3.8C94.2174 3.33333 94.7174 2.96666 95.2508 2.7C95.8508 2.43333 96.4841 2.23333 97.1508 2.09999H97.9508C98.6174 2.09999 99.1841 2.3 99.6508 2.7C99.9174 2.9 100.151 3.1 100.351 3.3C100.617 3.5 100.884 3.66667 101.151 3.8C101.351 4 101.484 4.16666 101.551 4.3C101.684 4.5 101.817 4.7 101.951 4.89999C102.084 5.03333 102.184 5.16666 102.251 5.3C103.051 6.03333 103.284 6.86667 102.951 7.8C102.751 8.46667 102.651 9.1 102.651 9.7C102.584 9.96667 102.551 10.2333 102.551 10.5C102.551 10.7667 102.551 11.0333 102.551 11.3C102.551 11.8333 102.517 12.3667 102.451 12.9C102.384 13.3667 102.284 13.8667 102.151 14.4C102.084 14.6 102.051 14.9 102.051 15.3C102.051 15.7667 102.017 16.2333 101.951 16.7C101.951 17.1667 101.917 17.6667 101.851 18.2C101.717 18.8 101.751 19.3667 101.951 19.9C102.084 20.1667 102.017 20.4 101.751 20.6C101.751 20.6 101.717 20.6333 101.651 20.7C101.651 20.7667 101.651 20.8333 101.651 20.9C101.584 21.3667 101.551 21.8333 101.551 22.3C101.551 22.7 101.551 23.1333 101.551 23.6C101.551 24.2 101.517 24.8 101.451 25.4C101.451 25.9333 101.417 26.4667 101.351 27C101.351 27.2667 101.351 27.5 101.351 27.7C101.351 27.9 101.317 28.1333 101.251 28.4C101.251 29.2667 101.217 30.1333 101.151 31C101.084 31.8 100.984 32.6333 100.851 33.5C100.651 34.5667 100.617 35.8 100.751 37.2V40.1C100.751 40.9 100.851 41.7 101.051 42.5C101.184 43.1 101.284 43.7 101.351 44.3C101.484 44.8333 101.617 45.3667 101.751 45.9C101.951 46.9 102.317 48 102.851 49.2L103.551 50.5C103.884 51.3667 104.284 52.2 104.751 53C105.284 53.8 105.817 54.5667 106.351 55.3C106.751 55.9 107.184 56.4333 107.651 56.9L109.451 58.7C109.917 58.9 110.317 58.9333 110.651 58.8L111.151 58.6C111.484 58.4667 111.817 58.3333 112.151 58.2C112.484 58 112.784 57.8333 113.051 57.7L113.651 57.4C114.317 56.9333 114.784 56.4333 115.051 55.9C115.251 55.4333 115.484 54.9667 115.751 54.5C116.017 53.9 116.284 53.3 116.551 52.7C116.884 52.0333 117.251 51.4333 117.651 50.9C117.917 50.5 118.151 50.1333 118.351 49.8C118.617 49.4 118.851 49 119.051 48.6C119.251 48.2667 119.451 47.9 119.651 47.5C119.851 47.1 120.017 46.6667 120.151 46.2C120.351 45.6 120.551 45 120.751 44.4C120.951 43.7333 121.117 43.0667 121.251 42.4C121.451 41.4667 121.551 40.5667 121.551 39.7V37.5C121.484 36.5667 121.417 35.6 121.351 34.6C121.351 33.5333 121.317 32.3667 121.251 31.1C121.251 30.7 121.217 30.2 121.151 29.6C121.084 28.9333 121.051 28.2667 121.051 27.6C121.051 27 121.017 26.4 120.951 25.8C120.951 25.2 120.917 24.6 120.851 24C120.784 22.8667 120.684 21.7667 120.551 20.7C120.484 19.6333 120.384 18.5667 120.251 17.5C120.251 17.3667 120.217 17.2667 120.151 17.2C120.151 17.0667 120.151 16.9667 120.151 16.9C120.151 16.2333 120.117 15.6 120.051 15C119.984 14.4 119.951 13.7667 119.951 13.1L119.551 10.9C119.484 10.4333 119.384 10 119.251 9.6C119.184 9.2 119.084 8.76666 118.951 8.3C118.884 7.23333 119.117 6.13333 119.651 5C120.184 3.86666 120.984 3.06666 122.051 2.59999C122.517 2.4 122.984 2.23333 123.451 2.09999C123.917 1.9 124.384 1.8 124.851 1.8C125.917 1.8 126.851 2 127.651 2.4C128.517 2.8 129.217 3.46666 129.751 4.4C129.884 4.6 130.017 4.96666 130.151 5.5C130.284 5.83333 130.351 6.2 130.351 6.6C130.351 6.93333 130.351 7.26666 130.351 7.6C130.417 8.26666 130.451 9 130.451 9.8C130.517 10.5333 130.584 11.2667 130.651 12V13C130.651 13.4 130.651 13.8 130.651 14.2C130.717 14.6 130.784 15.0333 130.851 15.5C130.917 15.7667 130.951 16.0667 130.951 16.4C130.951 16.7333 130.951 17.0667 130.951 17.4C130.951 17.6 130.951 17.8 130.951 18C130.951 18.2 130.984 18.4 131.051 18.6C131.117 18.8667 131.151 19.1333 131.151 19.4C131.151 19.6667 131.151 19.9333 131.151 20.2C131.151 20.6667 131.151 21.1667 131.151 21.7C131.217 22.1667 131.284 22.6667 131.351 23.2C131.417 23.6 131.451 24 131.451 24.4C131.451 24.8 131.484 25.2 131.551 25.6C131.551 26 131.551 26.4 131.551 26.8C131.617 27.2 131.651 27.6 131.651 28C131.651 28.4 131.651 28.8333 131.651 29.3C131.717 29.7 131.784 30.1 131.851 30.5C131.917 31.0333 131.951 31.6 131.951 32.2C131.951 32.7333 131.951 33.2667 131.951 33.8C132.017 34.6667 132.017 35.5667 131.951 36.5C131.951 37.3667 131.917 38.2667 131.851 39.2C131.851 39.6667 131.817 40.1333 131.751 40.6C131.684 41 131.651 41.4333 131.651 41.9C131.651 41.9667 131.617 42.0333 131.551 42.1C131.551 42.1667 131.551 42.2667 131.551 42.4C131.417 42.8667 131.284 43.4 131.151 44C131.017 44.5333 130.884 45.0667 130.751 45.6C130.684 45.7333 130.617 45.9 130.551 46.1C130.551 46.3 130.484 46.4667 130.351 46.6C130.151 47.0667 129.984 47.5 129.851 47.9C129.717 48.3 129.584 48.7333 129.451 49.2C129.317 49.4667 129.251 49.6667 129.251 49.8C129.184 50.1333 129.084 50.4667 128.951 50.8C128.817 51.0667 128.684 51.3667 128.551 51.7C128.284 52.1667 128.051 52.6333 127.851 53.1C127.651 53.5 127.417 53.9 127.151 54.3C126.951 54.5667 126.751 54.8667 126.551 55.2C126.351 55.4667 126.151 55.7333 125.951 56L125.251 57C124.984 57.4667 124.717 57.9667 124.451 58.5C124.184 58.9667 123.884 59.4667 123.551 60C123.284 60.4 122.951 60.8667 122.551 61.4C122.084 61.9333 121.684 62.6 121.351 63.4C121.284 63.4667 121.251 63.5333 121.251 63.6C121.251 63.6667 121.217 63.7333 121.151 63.8C120.684 64.4 120.251 65.0333 119.851 65.7C119.517 66.3667 119.151 67.0333 118.751 67.7C118.284 68.5 117.784 69.2667 117.251 70C116.784 70.7333 116.217 71.4 115.551 72C115.084 72.4667 114.651 73 114.251 73.6C114.051 73.9333 113.784 74.2 113.451 74.4C113.117 74.7333 112.784 75.1 112.451 75.5C112.117 75.9667 111.784 76.4 111.451 76.8C111.117 77.4667 110.917 78.0667 110.851 78.6C110.784 78.8667 110.717 79.1667 110.651 79.5C110.651 79.9 110.651 80.2667 110.651 80.6C110.584 81.2667 110.551 81.9333 110.551 82.6C110.551 83.3333 110.551 84.0667 110.551 84.8V88C110.551 88.4 110.517 88.8 110.451 89.2C110.451 89.6 110.451 90.0333 110.451 90.5C110.384 90.9667 110.351 91.4667 110.351 92C110.351 92.5333 110.351 93.0667 110.351 93.6C110.417 94 110.417 94.3667 110.351 94.7C110.351 95.1 110.384 95.5 110.451 95.9C110.451 96.3667 110.417 96.8 110.351 97.2C110.351 97.6667 110.384 98.1333 110.451 98.6C110.517 99.2 110.517 99.7333 110.451 100.2C110.384 100.267 110.351 100.333 110.351 100.4C110.417 100.533 110.451 100.633 110.451 100.7C110.517 101.433 110.517 102.2 110.451 103C110.384 103.067 110.351 103.1 110.351 103.1C110.417 103.167 110.451 103.2 110.451 103.2C110.451 103.933 110.451 104.667 110.451 105.4C110.517 106.2 110.551 107 110.551 107.8C110.551 108.867 110.517 109.933 110.451 111C110.451 112.067 110.451 113.167 110.451 114.3C110.517 115.167 110.484 116.033 110.351 116.9C110.284 117.767 110.251 118.633 110.251 119.5V120.6C110.317 121 110.284 121.367 110.151 121.7C110.017 122.1 109.884 122.467 109.751 122.8C109.617 123.2 109.184 123.467 108.451 123.6ZM181.09 84.8C180.423 84.7333 179.923 84.3333 179.59 83.6C179.523 83.5333 179.49 83.3667 179.49 83.1C179.423 82.5667 179.323 82.0333 179.19 81.5C179.123 80.9667 179.123 80.4333 179.19 79.9V79.4C179.123 78.8 179.09 78.2 179.09 77.6C179.09 77 179.057 76.4333 178.99 75.9C178.857 74.7667 178.457 73.9 177.79 73.3L176.89 72.4C176.557 72 176.123 71.8667 175.59 72C175.19 72.0667 174.79 72.1 174.39 72.1C174.057 72.1 173.69 72.0667 173.29 72C173.023 72 172.723 72.0333 172.39 72.1C172.123 72.1 171.823 72.1 171.49 72.1C171.223 72.1 170.923 72.1 170.59 72.1C170.323 72.0333 170.057 72.0333 169.79 72.1C169.523 72.1667 169.257 72.2 168.99 72.2C168.79 72.2 168.59 72.2 168.39 72.2H164.99C164.257 72.2 163.49 72.3 162.69 72.5L160.29 73.1C159.49 73.3667 158.69 73.5667 157.89 73.7C157.623 73.7667 157.357 73.8333 157.09 73.9C156.823 73.9667 156.557 74.0667 156.29 74.2C155.29 74.6667 154.323 74.9333 153.39 75C152.79 75.1333 152.357 75.4 152.09 75.8L151.59 76.4C151.457 76.4667 151.323 76.5333 151.19 76.6C151.057 76.7333 150.923 76.8667 150.79 77C150.323 77.2667 149.823 77.2667 149.29 77C148.69 76.6667 148.323 76.3 148.19 75.9C148.19 75.8333 148.157 75.7667 148.09 75.7C148.09 75.7 148.09 75.6667 148.09 75.6C147.623 74.4667 146.857 73.4667 145.79 72.6C145.523 72.4 145.29 72.1667 145.09 71.9C145.023 71.7 144.923 71.5333 144.79 71.4C144.657 71.2 144.523 71.0333 144.39 70.9L143.79 70C143.523 69.5333 143.423 69 143.49 68.4C143.557 68.0667 143.59 67.7333 143.59 67.4C143.657 67 143.723 66.6333 143.79 66.3V65.7C143.79 64.9667 143.79 64.2333 143.79 63.5C143.79 62.7 143.823 61.9667 143.89 61.3V60.3C144.023 60.0333 144.057 59.8 143.99 59.6C143.99 59.3333 143.99 59.0667 143.99 58.8C144.057 57.9333 144.057 57.1 143.99 56.3C143.99 55.4333 144.023 54.5667 144.09 53.7L144.39 49.2C144.457 48.4667 144.49 47.7667 144.49 47.1C144.557 46.4333 144.59 45.7667 144.59 45.1V44.8C144.723 44 144.79 43.2 144.79 42.4C144.79 41.6 144.79 40.7667 144.79 39.9V33C144.723 32.2667 144.657 31.5333 144.59 30.8C144.59 30.0667 144.59 29.3333 144.59 28.6C144.59 27.8 144.557 27 144.49 26.2C144.423 25.3333 144.323 24.4667 144.19 23.6C144.123 23.0667 144.023 22.5 143.89 21.9C143.823 21.3 143.79 20.7 143.79 20.1C143.79 19.9667 143.757 19.8333 143.69 19.7C143.69 19.5667 143.69 19.4333 143.69 19.3C143.29 17.5 143.09 15.6667 143.09 13.8V9.6C143.09 9.13333 143.09 8.7 143.09 8.3C143.157 7.83333 143.223 7.36666 143.29 6.9C143.423 6.1 143.69 5.5 144.09 5.1L144.59 4.49999C144.99 3.96666 145.457 3.6 145.99 3.4C146.523 3.13333 147.09 2.96666 147.69 2.9H148.39C149.39 2.9 150.19 3.26666 150.79 3.99999C150.923 4.06666 151.023 4.13333 151.09 4.2C151.157 4.26666 151.223 4.33333 151.29 4.4C151.623 4.66666 151.823 4.96666 151.89 5.3C152.223 5.96666 152.39 6.4 152.39 6.6C152.457 6.8 152.49 7.26666 152.49 8V8.7C152.49 9.16666 152.49 9.63333 152.49 10.1C152.49 10.5 152.523 10.9333 152.59 11.4C152.657 11.5333 152.69 11.7333 152.69 12C152.69 12.4667 152.69 12.9333 152.69 13.4C152.757 13.8667 152.823 14.3333 152.89 14.8C152.957 15.4667 153.023 16.1333 153.09 16.8C153.157 17.4 153.19 18.0667 153.19 18.8C153.19 18.9333 153.19 19.1 153.19 19.3C153.257 19.4333 153.29 19.5667 153.29 19.7C153.29 19.7667 153.29 19.8667 153.29 20C153.357 20.0667 153.39 20.1667 153.39 20.3L153.69 25.4C153.757 25.7333 153.79 26.1 153.79 26.5C153.79 26.8333 153.79 27.2 153.79 27.6C153.857 27.6667 153.89 27.8333 153.89 28.1C153.823 28.4333 153.79 28.8 153.79 29.2C153.79 29.5333 153.823 29.8667 153.89 30.2V36.8C153.823 37.2 153.823 37.6 153.89 38V38.6C153.823 39.1333 153.79 39.7 153.79 40.3C153.79 40.8333 153.757 41.4 153.69 42C153.69 42.4667 153.69 42.9667 153.69 43.5C153.69 43.9667 153.657 44.4667 153.59 45C153.523 45.2667 153.49 45.5667 153.49 45.9C153.49 46.2333 153.49 46.5667 153.49 46.9C153.49 47.1667 153.457 47.5 153.39 47.9C153.39 48.2333 153.357 48.5667 153.29 48.9V49.2C153.223 49.8667 153.157 50.5333 153.09 51.2C153.09 51.8667 153.057 52.5667 152.99 53.3C152.923 53.6333 152.89 54 152.89 54.4C152.89 54.8 152.857 55.2 152.79 55.6C152.723 55.8667 152.69 56.2 152.69 56.6C152.69 56.9333 152.69 57.2667 152.69 57.6C152.69 57.9333 152.657 58.2667 152.59 58.6C152.523 59.3333 152.49 60.0667 152.49 60.8C152.49 61.4667 152.49 62.1667 152.49 62.9V63C152.623 63.3333 152.79 63.5 152.99 63.5L154.99 63.8C156.59 64 158.157 64.1 159.69 64.1C160.09 64.1 160.423 64.0667 160.69 64C161.023 63.9333 161.39 63.9 161.79 63.9C162.19 63.9 162.557 63.8667 162.89 63.8H165.69C166.157 63.8 166.623 63.7667 167.09 63.7C167.557 63.5667 168.023 63.4667 168.49 63.4H168.99C169.723 63.4 170.457 63.3667 171.19 63.3C171.923 63.1667 172.657 63.1 173.39 63.1H176.69C177.623 63.1 178.423 62.9 179.09 62.5C179.623 62.3 180.123 62.1667 180.59 62.1C181.123 62.0333 181.657 61.9667 182.19 61.9C182.99 61.9 183.69 62.1 184.29 62.5C185.623 63.3 186.49 64.4 186.89 65.8C187.023 66.2667 187.09 66.7667 187.09 67.3C187.157 67.8333 187.157 68.3667 187.09 68.9C187.023 69.5 186.89 70.0667 186.69 70.6C186.49 71.0667 186.223 71.5667 185.89 72.1L184.99 73.4C184.59 74.1333 184.29 74.8667 184.09 75.6C184.023 76.2 183.923 76.7667 183.79 77.3C183.657 77.9 183.59 78.5 183.59 79.1C183.59 79.3667 183.557 79.6333 183.49 79.9C183.49 80.1667 183.49 80.4333 183.49 80.7C183.423 80.9667 183.39 81.2 183.39 81.4C183.39 81.6 183.39 81.8333 183.39 82.1C183.39 82.6333 183.223 83.2333 182.89 83.9C182.49 84.5667 181.89 84.8667 181.09 84.8ZM200.203 82C200.136 82 199.903 81.9333 199.503 81.8C199.303 81.7333 199.07 81.5 198.803 81.1C198.736 80.9 198.67 80.7 198.603 80.5C198.536 80.3 198.503 80.1 198.503 79.9C198.303 78.9 198.203 77.9 198.203 76.9V70C198.203 69.4 198.136 68.8 198.003 68.2C197.87 67.6 197.736 67 197.603 66.4C197.603 66.2667 197.536 66.0667 197.403 65.8C197.336 65.6 197.236 65.4 197.103 65.2C196.97 64.9333 196.836 64.7 196.703 64.5C196.436 64.0333 196.236 63.5333 196.103 63C195.97 62.4667 195.87 61.9667 195.803 61.5C195.736 60.7667 195.736 60.0667 195.803 59.4C195.936 59 196.036 58.6333 196.103 58.3C196.17 57.9 196.27 57.5333 196.403 57.2C196.603 56.6667 196.77 56.1333 196.903 55.6C197.036 55 197.203 54.4 197.403 53.8L198.903 48.9C199.37 47.5 199.97 46.0667 200.703 44.6C201.436 43.2 202.136 41.6333 202.803 39.9C202.936 39.5 203.103 39.0667 203.303 38.6C203.57 37.8667 203.836 37.1667 204.103 36.5C204.436 35.7667 204.736 35.0667 205.003 34.4L206.503 30.2C206.636 29.9333 206.736 29.6667 206.803 29.4C206.87 29.1333 206.936 28.8667 207.003 28.6C207.536 27.2667 208.07 26 208.603 24.8C209.003 24 209.27 23.1333 209.403 22.2C209.536 21.2667 209.536 20.3333 209.403 19.4C209.336 19 209.27 18.6 209.203 18.2C209.203 17.7333 209.203 17.3 209.203 16.9C209.203 16.7 209.136 16.5333 209.003 16.4C208.936 16.2 208.936 16 209.003 15.8C209.07 15.6667 209.136 15.5333 209.203 15.4C209.336 15.2667 209.436 15.1333 209.503 15C209.703 14.2667 210.003 13.6333 210.403 13.1C210.87 12.5 211.37 11.9667 211.903 11.5C212.17 11.2333 212.536 11.0333 213.003 10.9C213.27 10.7667 213.503 10.6333 213.703 10.5C213.97 10.3667 214.203 10.2 214.403 9.99999C214.736 9.73333 215.103 9.56666 215.503 9.49999C216.036 9.43333 216.603 9.23333 217.203 8.9C217.736 8.56666 218.336 8.46666 219.003 8.59999H219.903C220.37 8.59999 220.87 8.76666 221.403 9.09999C221.536 9.16666 221.67 9.26666 221.803 9.4C222.003 9.46666 222.203 9.56666 222.403 9.7C222.936 10.1 223.203 10.6 223.203 11.2C223.203 11.6667 223.236 12.1 223.303 12.5C223.436 12.9 223.536 13.3333 223.603 13.8C223.736 14.2 223.736 14.6333 223.603 15.1C223.536 15.2333 223.503 15.4 223.503 15.6C223.503 15.7333 223.47 15.8667 223.403 16C223.403 16.2667 223.37 16.5333 223.303 16.8C223.303 17.0667 223.27 17.3333 223.203 17.6C223.003 18.0667 223.07 18.5333 223.403 19C223.936 19.8667 224.403 20.7667 224.803 21.7C225.27 22.6333 225.736 23.5667 226.203 24.5L228.003 27.7C228.536 28.5667 229.07 29.6 229.603 30.8C229.736 31 229.836 31.2 229.903 31.4C230.036 31.6 230.17 31.8 230.303 32C230.503 32.3333 230.67 32.7 230.803 33.1C231.003 33.5 231.203 33.9 231.403 34.3C231.936 35.3 232.37 36.3333 232.703 37.4C233.103 38.4 233.503 39.4667 233.903 40.6C233.903 40.6667 233.903 40.7333 233.903 40.8C233.97 40.8 234.003 40.8333 234.003 40.9C234.07 41.3667 234.403 41.6 235.003 41.6C235.203 41.5333 235.403 41.5 235.603 41.5C235.87 41.5 236.103 41.5 236.303 41.5C237.036 41.5 237.67 41.6333 238.203 41.9C238.536 41.9667 238.87 42.1667 239.203 42.5C239.736 43.0333 240.103 43.4667 240.303 43.8C240.503 44.1333 240.636 44.6333 240.703 45.3C240.97 46.5667 240.703 47.6667 239.903 48.6L239.303 49.1C239.17 49.2333 239.003 49.3667 238.803 49.5C238.603 49.5667 238.436 49.6667 238.303 49.8C237.97 50.0667 237.77 50.2667 237.703 50.4C237.703 50.5333 237.803 50.8333 238.003 51.3L239.503 54.9C240.103 56.2333 240.703 57.5667 241.303 58.9C241.97 60.2333 242.636 61.5667 243.303 62.9C243.57 63.3667 243.77 63.8333 243.903 64.3C244.103 64.7667 244.236 65.2667 244.303 65.8C244.37 66.2 244.37 66.6 244.303 67C244.303 67.4 244.27 67.8 244.203 68.2C244.203 68.2667 244.136 68.5 244.003 68.9C243.803 69.1667 243.603 69.4333 243.403 69.7C243.27 69.9667 243.103 70.2333 242.903 70.5C242.37 71.2333 241.936 72.0667 241.603 73C241.47 73.6 241.036 74.0667 240.303 74.4C239.903 74.6 239.47 74.6 239.003 74.4C238.403 74.2 238.003 73.8 237.803 73.2L237.603 72.7C237.403 72.0333 237.103 71.4 236.703 70.8C236.436 70.3333 236.17 69.8667 235.903 69.4C235.703 68.8667 235.47 68.3667 235.203 67.9C235.136 67.7667 235.103 67.6667 235.103 67.6C235.103 67.4667 235.07 67.3667 235.003 67.3C234.936 66.9 234.803 66.5333 234.603 66.2C234.47 65.8 234.303 65.4333 234.103 65.1C233.703 64.1 233.27 63.1333 232.803 62.2C232.403 61.2 231.97 60.2 231.503 59.2L230.003 56C229.936 55.8 229.87 55.6 229.803 55.4C229.736 55.1333 229.636 54.8667 229.503 54.6L228.303 51.9C228.303 51.7667 228.236 51.5667 228.103 51.3C227.77 50.7667 227.336 50.4667 226.803 50.4C226.336 50.4 225.903 50.3667 225.503 50.3C225.103 50.2333 224.703 50.2 224.303 50.2C223.236 50.2 222.17 50.3 221.103 50.5C220.036 50.7 219.036 51.0667 218.103 51.6C216.836 52.3333 215.536 52.8 214.203 53C213.936 53 213.67 53.0333 213.403 53.1C213.136 53.1667 212.87 53.2667 212.603 53.4C212.203 53.6667 211.97 53.9667 211.903 54.3C211.77 54.7 211.703 55 211.703 55.2L211.403 56.6C211.336 57.0667 211.07 57.5333 210.603 58C210.27 58.3333 209.803 58.5 209.203 58.5C208.336 58.3667 207.77 57.9333 207.503 57.2C207.436 57 207.37 56.8 207.303 56.6C207.236 56.4 207.17 56.1667 207.103 55.9C206.836 56.3 206.803 56.6333 207.003 56.9C207.136 57.1667 207.07 57.4 206.803 57.6C206.67 57.7333 206.636 57.8333 206.703 57.9C206.836 58.1667 206.803 58.4 206.603 58.6C206.403 58.8 206.336 59.0333 206.403 59.3C206.47 59.4333 206.47 59.6 206.403 59.8C206.07 60.2667 205.836 60.8333 205.703 61.5C205.77 61.7667 205.603 61.9667 205.203 62.1C205.07 62.1 205.003 62.1667 205.003 62.3C204.87 62.5 204.736 62.8 204.603 63.2C204.536 63.5333 204.436 63.9 204.303 64.3C204.236 64.6333 204.136 64.9667 204.003 65.3L203.403 67.8V68.2C203.403 68.8 203.336 69.4 203.203 70C203.136 70.5333 203.103 71.1 203.103 71.7L202.803 75C202.736 75.4667 202.67 75.9333 202.603 76.4C202.603 76.9333 202.603 77.4667 202.603 78C202.536 78.4 202.47 78.7667 202.403 79.1C202.403 79.5 202.336 79.9 202.203 80.3C202.07 80.9 201.836 81.3333 201.503 81.6C201.236 82 200.803 82.1333 200.203 82ZM213.203 41.5H213.303C213.97 41.3667 214.603 41.2667 215.203 41.2C215.803 41.1333 216.403 41.0667 217.003 41C217.403 40.9333 217.803 40.9 218.203 40.9C218.603 40.8333 219.003 40.8 219.403 40.8H221.503C221.636 40.8 221.77 40.8 221.903 40.8C222.036 40.7333 222.136 40.7 222.203 40.7C222.336 40.7 222.403 40.5667 222.403 40.3C222.203 40.0333 222.036 39.7667 221.903 39.5C221.77 39.2333 221.636 38.9667 221.503 38.7C221.103 37.7667 220.57 36.9667 219.903 36.3C219.836 36.1667 219.77 36.0667 219.703 36C219.636 35.8667 219.57 35.7333 219.503 35.6C219.436 35.4667 219.336 35.3333 219.203 35.2C219.136 35 219.036 34.8333 218.903 34.7C218.57 34.4333 218.236 34.5 217.903 34.9L217.603 35.7C217.536 36.2333 217.436 36.8 217.303 37.4C217.17 37.9333 217.036 38.4667 216.903 39C216.903 39.1333 216.836 39.3333 216.703 39.6C216.57 40 216.236 40.3 215.703 40.5C215.236 40.7 214.736 40.6333 214.203 40.3L213.603 39.9C213.603 39.9 213.536 39.9 213.403 39.9C213.27 40.1667 213.203 40.3667 213.203 40.5C213.203 40.6333 213.203 40.7667 213.203 40.9C213.27 41.0333 213.236 41.1667 213.103 41.3C212.97 41.4333 213.003 41.5 213.203 41.5ZM257.251 78.9C256.651 78.7 256.184 78.3 255.851 77.7L255.551 76.6C255.484 76.2667 255.451 75.9333 255.451 75.6C255.451 75.2667 255.417 74.9333 255.351 74.6C255.284 74.3333 255.217 74.0667 255.151 73.8C255.151 73.6 255.084 73.4 254.951 73.2C254.817 72.9333 254.684 72.6667 254.551 72.4C254.417 72.1333 254.284 71.8667 254.151 71.6C253.417 70 253.184 68.4667 253.451 67V66.5C253.517 65.7 253.584 64.9333 253.651 64.2C253.717 63.4 253.784 62.6 253.851 61.8C253.851 61.5333 253.851 61.2667 253.851 61C253.917 60.7333 253.951 60.4667 253.951 60.2C253.951 60 253.951 59.8 253.951 59.6C254.017 59.4 254.051 59.2333 254.051 59.1C254.051 58.7667 254.051 58.4 254.051 58C254.117 57.6 254.151 57.2333 254.151 56.9V56.3C254.084 55.2333 254.051 54.2 254.051 53.2C254.051 52.1333 254.051 51.0667 254.051 50C254.051 49.6667 254.051 49.3333 254.051 49C254.051 48.6 254.017 48.2333 253.951 47.9C253.884 47.7667 253.851 47.5667 253.851 47.3C253.917 46.8333 253.917 46.4 253.851 46C253.851 45.6 253.851 45.2 253.851 44.8C253.851 44.5333 253.851 44.3 253.851 44.1C253.851 43.8333 253.884 43.6 253.951 43.4C254.017 42.7333 254.017 42.1 253.951 41.5C253.884 40.7 253.817 39.9 253.751 39.1C253.684 38.3 253.584 37.5333 253.451 36.8C253.317 35.6667 253.184 34.5333 253.051 33.4C252.984 32.2667 252.984 31.1333 253.051 30V27C253.051 26.6667 253.051 26.3333 253.051 26C253.117 25.6667 253.151 25.3667 253.151 25.1V24.3C253.084 23.7667 253.051 23.2333 253.051 22.7C253.117 22.1 253.184 21.5 253.251 20.9V19.8C253.251 18.8667 253.251 17.9333 253.251 17C253.317 16.0667 253.351 15.1667 253.351 14.3C253.351 13.7667 253.351 13.2667 253.351 12.8C253.351 12.2667 253.284 11.7667 253.151 11.3C253.084 10.5 253.151 9.63333 253.351 8.7C253.551 8.16666 253.784 7.66666 254.051 7.19999C254.317 6.73333 254.617 6.3 254.951 5.9C256.151 4.5 257.717 3.8 259.651 3.8C260.251 3.86666 260.817 4 261.351 4.2C261.951 4.33333 262.484 4.6 262.951 5C263.084 5.06667 263.284 5.23333 263.551 5.5C263.884 5.76667 264.251 6.03333 264.651 6.29999C265.117 6.5 265.584 6.66666 266.051 6.79999C266.584 6.86666 267.117 6.96666 267.651 7.1C268.251 7.23333 268.817 7.36667 269.351 7.5C269.551 7.56666 269.817 7.6 270.151 7.6C270.484 7.6 270.751 7.5 270.951 7.3C271.084 7.16666 271.217 7.06666 271.351 7C271.551 6.86666 271.751 6.76666 271.951 6.7C272.751 6.23333 273.484 6.2 274.151 6.6C274.351 6.66666 274.517 6.76666 274.651 6.9C274.851 6.96666 275.017 7.03333 275.151 7.1C275.884 7.43333 276.451 7.83333 276.851 8.3C277.184 8.7 277.617 8.96666 278.151 9.09999C278.484 9.16666 278.751 9.26666 278.951 9.4C279.217 9.53333 279.484 9.73333 279.751 9.99999C280.017 10.2 280.284 10.3667 280.551 10.5C280.884 10.6333 281.184 10.7667 281.451 10.9C281.984 10.9667 282.417 11.2667 282.751 11.8C283.017 12.3333 283.451 12.7 284.051 12.9C284.384 12.9667 284.717 13.1667 285.051 13.5C285.184 13.7 285.517 13.9333 286.051 14.2C286.384 14.2667 286.651 14.4333 286.851 14.7C287.117 14.9 287.351 15.1667 287.551 15.5L287.751 15.8C288.217 16.8 288.984 17.7333 290.051 18.6C290.451 18.9333 290.817 19.3333 291.151 19.8C291.484 20.2 291.717 20.6667 291.851 21.2C291.984 21.4667 292.117 21.7333 292.251 22C292.451 22.2667 292.617 22.5667 292.751 22.9C292.884 23.1 292.984 23.3 293.051 23.5C293.117 23.7 293.184 23.9333 293.251 24.2C293.317 24.4667 293.384 24.7 293.451 24.9C293.517 25.1 293.584 25.3333 293.651 25.6C293.717 25.7333 293.751 25.9 293.751 26.1C293.751 26.2333 293.784 26.3667 293.851 26.5C294.051 27.2333 294.184 28 294.251 28.8C294.384 29.6 294.484 30.4 294.551 31.2C294.617 31.6667 294.617 32.1333 294.551 32.6C294.551 33.0667 294.551 33.5667 294.551 34.1C294.551 34.4333 294.517 34.8 294.451 35.2C294.451 35.5333 294.417 35.8667 294.351 36.2C294.351 36.4 294.284 36.6333 294.151 36.9C293.551 38.7 292.584 40.3 291.251 41.7C290.984 41.9667 290.717 42.2667 290.451 42.6C290.184 42.8667 289.917 43.1333 289.651 43.4C289.251 43.8 288.851 44.1667 288.451 44.5C288.051 44.8333 287.651 45.1667 287.251 45.5L286.951 45.8C286.417 46.0667 285.884 46.3333 285.351 46.6C284.817 46.8667 284.251 47.0667 283.651 47.2C283.451 47.2 283.317 47.2333 283.251 47.3C282.784 47.5667 282.251 47.7 281.651 47.7C281.117 47.7 280.584 47.6667 280.051 47.6C279.784 47.5333 279.517 47.5 279.251 47.5C279.051 47.4333 278.817 47.4 278.551 47.4C277.684 47.4 276.851 47.4333 276.051 47.5C275.251 47.5667 274.417 47.6667 273.551 47.8L268.951 48.5C268.751 48.5 268.517 48.5333 268.251 48.6C268.051 48.6 267.817 48.6333 267.551 48.7C267.084 48.7667 266.617 48.8667 266.151 49C265.751 49.0667 265.317 49.0667 264.851 49C264.651 49 264.551 49.1333 264.551 49.4V51.1C264.417 51.8333 264.417 52.5667 264.551 53.3C264.684 53.9 264.617 54.3667 264.351 54.7C264.151 55.1667 264.117 55.6667 264.251 56.2C264.384 56.8 264.484 57.4333 264.551 58.1C264.684 58.7 264.817 59.3 264.951 59.9C265.017 60.2333 265.051 60.5667 265.051 60.9C265.117 61.2333 265.151 61.5667 265.151 61.9C265.284 63.3 265.484 64.7 265.751 66.1C265.884 66.5 265.951 66.9 265.951 67.3C266.017 67.6333 266.084 68 266.151 68.4C266.151 68.8667 266.117 69.2333 266.051 69.5C265.984 69.7 265.917 69.9333 265.851 70.2C265.851 70.4 265.784 70.6 265.651 70.8L265.351 71.5C265.217 71.6333 265.084 71.8333 264.951 72.1C264.684 72.6333 264.217 73.0667 263.551 73.4C262.751 73.7333 262.017 73.8667 261.351 73.8C261.017 73.8 260.784 73.8333 260.651 73.9C260.317 73.9 260.117 74.0333 260.051 74.3C259.984 74.4333 259.917 74.6 259.851 74.8C259.784 75 259.717 75.1667 259.651 75.3C259.651 75.5667 259.617 75.8333 259.551 76.1C259.551 76.4333 259.517 76.7667 259.451 77.1C259.384 77.6333 259.117 78.1333 258.651 78.6C258.251 79 257.784 79.1 257.251 78.9ZM266.351 39.8C266.751 39.8 267.117 39.8 267.451 39.8C267.851 39.7333 268.251 39.6667 268.651 39.6C269.117 39.4667 269.584 39.3667 270.051 39.3C270.517 39.2333 270.984 39.1667 271.451 39.1C272.384 38.9667 273.284 38.7667 274.151 38.5C274.417 38.4333 274.684 38.4 274.951 38.4C275.217 38.3333 275.484 38.3 275.751 38.3C276.217 38.3 276.551 38.2667 276.751 38.2C277.217 38.0667 277.651 38 278.051 38C278.517 38 279.017 38 279.551 38H281.051C281.851 37.9333 282.484 37.6 282.951 37L283.751 36.1C284.017 35.7667 284.251 35.4333 284.451 35.1C284.717 34.7 284.884 34.2667 284.951 33.8C285.084 32.8 285.051 31.9 284.851 31.1C284.651 30.3 284.417 29.5333 284.151 28.8C283.884 28 283.551 27.2667 283.151 26.6C282.751 25.7333 282.151 25.0667 281.351 24.6C281.084 24.5333 280.884 24.3333 280.751 24C280.617 23.6 280.384 23.3 280.051 23.1C279.984 23.0333 279.917 22.9667 279.851 22.9C279.784 22.8333 279.684 22.7667 279.551 22.7C279.284 22.4333 278.917 22.3 278.451 22.3C278.184 22.3 277.884 22.2667 277.551 22.2C277.284 22.0667 277.017 21.9667 276.751 21.9C276.484 21.7667 276.217 21.6333 275.951 21.5C275.751 21.3667 275.551 21.2333 275.351 21.1C274.684 20.7 273.951 20.5 273.151 20.5C272.551 20.5 271.884 20.4 271.151 20.2C270.417 19.7333 269.651 19.4667 268.851 19.4C268.717 19.4 268.517 19.3333 268.251 19.2L267.451 18.9C267.051 18.7 266.717 18.6 266.451 18.6C265.584 18.3333 264.951 18.6333 264.551 19.5C264.484 19.7 264.417 19.9333 264.351 20.2C264.284 20.4 264.217 20.6333 264.151 20.9C264.084 21.4333 264.017 21.9667 263.951 22.5C263.884 23.0333 263.817 23.5667 263.751 24.1C263.684 24.5 263.617 24.9 263.551 25.3C263.484 25.7 263.451 26.1 263.451 26.5C263.384 27.3667 263.351 28.2333 263.351 29.1C263.417 29.9667 263.517 30.8667 263.651 31.8V32.8C263.651 33.2667 263.651 33.7333 263.651 34.2C263.717 34.6667 263.784 35.1333 263.851 35.6C263.917 35.8 263.951 36.0667 263.951 36.4L264.251 39.1C264.251 39.5 264.451 39.7 264.851 39.7C265.117 39.7667 265.351 39.8 265.551 39.8C265.817 39.8 266.084 39.8 266.351 39.8ZM335.446 72.9C334.579 73.1 333.679 73.0333 332.746 72.7C332.479 72.6333 332.246 72.5333 332.046 72.4C331.913 72.2667 331.746 72.1333 331.546 72C331.079 71.6667 330.713 71.1667 330.446 70.5L330.046 69.2C330.046 69.0667 330.013 68.9667 329.946 68.9C329.946 68.7667 329.946 68.6667 329.946 68.6C329.946 67.6667 329.879 66.7667 329.746 65.9C329.613 64.9667 329.479 64.0667 329.346 63.2C329.213 62.5333 329.079 61.8667 328.946 61.2C328.879 60.5333 328.779 59.8667 328.646 59.2C328.646 59.0667 328.613 58.9667 328.546 58.9C328.546 58.8333 328.546 58.7667 328.546 58.7C328.413 57.9 328.279 57.1 328.146 56.3C328.013 55.5 327.879 54.7333 327.746 54C327.679 53.6 327.613 53.2 327.546 52.8C327.546 52.4 327.479 52 327.346 51.6L326.746 47.2C326.679 46.6 326.579 46 326.446 45.4C326.379 44.7333 326.279 44.0667 326.146 43.4C326.079 42.7333 325.979 42.1 325.846 41.5C325.713 40.8333 325.579 40.2 325.446 39.6L323.946 33C323.813 32.2667 323.679 31.5333 323.546 30.8C323.413 30.0667 323.246 29.3667 323.046 28.7C322.846 28.1 322.679 27.5 322.546 26.9C322.413 26.2333 322.213 25.6 321.946 25L321.846 24.6C321.646 23.7333 321.379 22.9 321.046 22.1C320.779 21.3 320.479 20.5 320.146 19.7C320.146 19.6333 320.113 19.6 320.046 19.6C320.046 19.5333 320.046 19.5 320.046 19.5C319.913 19.1 319.679 18.9667 319.346 19.1C319.279 19.1667 319.179 19.2 319.046 19.2C318.779 19.2667 318.513 19.3667 318.246 19.5C318.046 19.6333 317.813 19.7667 317.546 19.9C316.879 20.1 316.313 20.4 315.846 20.8L313.146 22.7C312.746 22.9 312.379 23.1667 312.046 23.5C311.779 23.8333 311.513 24.1667 311.246 24.5C311.046 24.7667 310.946 25.0667 310.946 25.4L310.646 27.2C310.579 27.8667 310.513 28.5667 310.446 29.3C310.379 30.0333 310.313 30.7667 310.246 31.5C310.179 32.1667 310.079 32.8 309.946 33.4C309.879 33.9333 309.846 34.5333 309.846 35.2C309.846 35.7333 309.746 36.3 309.546 36.9C309.346 37.6333 308.846 38.1 308.046 38.3C307.446 38.3667 306.946 38.1667 306.546 37.7C306.213 37.3667 305.979 36.8667 305.846 36.2C305.779 35.7333 305.713 35.3 305.646 34.9C305.579 34.5 305.546 34.0667 305.546 33.6V30.6C305.546 30 305.513 29.4333 305.446 28.9C305.446 28.3667 305.479 27.8667 305.546 27.4C305.546 26.2667 305.279 25.1667 304.746 24.1L303.246 21C302.979 20.4667 302.746 19.7667 302.546 18.9C302.346 17.9667 302.246 17.2 302.246 16.6C302.379 15.0667 302.946 13.8 303.946 12.8C304.813 11.9333 305.813 11.3667 306.946 11.1C307.346 10.9667 307.879 10.8333 308.546 10.7L313.846 9.8C314.379 9.73333 314.879 9.66667 315.346 9.6C315.879 9.46666 316.379 9.36666 316.846 9.3C317.846 9.16666 318.846 9.03333 319.846 8.9C320.913 8.76667 321.979 8.66666 323.046 8.59999C323.646 8.53333 324.246 8.46666 324.846 8.4C325.446 8.33333 326.046 8.26667 326.646 8.2H327.046C327.646 8.13333 328.213 8.1 328.746 8.1C329.346 8.03333 329.946 7.96666 330.546 7.9C330.879 7.83333 331.213 7.8 331.546 7.8C331.879 7.8 332.179 7.76666 332.446 7.69999C332.513 7.63333 332.646 7.6 332.846 7.6L336.546 7.3C337.279 7.23333 337.979 7.16666 338.646 7.1C339.379 7.03333 340.113 6.96666 340.846 6.9C341.446 6.83333 342.046 6.76666 342.646 6.7C343.246 6.56666 343.846 6.36666 344.446 6.1C345.046 5.83333 345.646 5.76666 346.246 5.9C346.913 5.96667 347.513 6.13333 348.046 6.4C348.246 6.46666 348.413 6.6 348.546 6.79999C348.746 6.93333 348.913 7.06666 349.046 7.19999C349.379 7.53333 349.646 7.93333 349.846 8.4C350.046 8.8 350.246 9.2 350.446 9.6C350.646 10 350.646 10.4 350.446 10.8C350.313 11.0667 350.213 11.3667 350.146 11.7C350.146 11.9667 350.113 12.2667 350.046 12.6C350.046 12.9333 349.946 13.2 349.746 13.4C349.613 13.4667 349.479 13.5667 349.346 13.7C349.213 13.8333 349.079 13.9667 348.946 14.1C348.746 14.1667 348.546 14.3667 348.346 14.7C347.946 15.2333 347.379 15.5 346.646 15.5C346.379 15.5 346.113 15.5333 345.846 15.6C345.646 15.6667 345.413 15.7333 345.146 15.8C344.546 15.9333 344.146 16.1333 343.946 16.4C343.613 16.7333 343.246 16.9 342.846 16.9C342.379 17.0333 342.013 16.9 341.746 16.5C341.679 16.3 341.513 16.2 341.246 16.2C340.979 16.2667 340.679 16.3 340.346 16.3C340.079 16.3 339.813 16.3 339.546 16.3C339.279 16.3667 338.979 16.4 338.646 16.4C338.379 16.4 338.079 16.4333 337.746 16.5C337.479 16.5 337.246 16.5333 337.046 16.6C336.846 16.6 336.613 16.6 336.346 16.6C335.679 16.6667 334.979 16.7333 334.246 16.8C333.579 16.8667 332.879 16.9333 332.146 17C331.746 17 331.446 17.0333 331.246 17.1C330.979 17.2333 330.846 17.4333 330.846 17.7C330.779 17.9667 330.779 18.3 330.846 18.7L331.446 21.8C331.579 22.4 331.713 23.0333 331.846 23.7C331.979 24.3 332.113 24.9333 332.246 25.6L332.546 27.8C332.546 28.0667 332.546 28.3333 332.546 28.6C332.613 28.8 332.679 29.0333 332.746 29.3C332.879 30.1 333.013 30.9 333.146 31.7C333.346 32.5 333.479 33.3 333.546 34.1L333.646 34.5C333.913 35.3667 334.113 36.2333 334.246 37.1C334.379 37.9667 334.513 38.8667 334.646 39.8C334.779 40.4 334.913 41.0333 335.046 41.7C335.179 42.3 335.279 42.9 335.346 43.5C335.413 43.9667 335.479 44.4333 335.546 44.9C335.613 45.3 335.679 45.7333 335.746 46.2V46.7C335.813 47.2333 335.879 47.7667 335.946 48.3C336.079 48.7667 336.179 49.2667 336.246 49.8L336.546 52.8C336.613 53.2667 336.679 53.7333 336.746 54.2C336.813 54.6667 336.879 55.1667 336.946 55.7C336.946 55.8333 336.946 56 336.946 56.2C337.013 56.3333 337.046 56.4667 337.046 56.6C337.046 56.9333 337.079 57.3 337.146 57.7C337.213 58.0333 337.279 58.4 337.346 58.8C337.479 59.5333 337.613 60.3 337.746 61.1C337.879 61.8333 338.013 62.6 338.146 63.4C338.213 63.8667 338.313 64.3333 338.446 64.8C338.579 65.2 338.679 65.6333 338.746 66.1C338.813 66.4333 339.013 66.7667 339.346 67.1C339.613 67.3 339.679 67.5333 339.546 67.8C339.346 68.0667 339.213 68.3667 339.146 68.7C339.146 69.0333 339.113 69.3667 339.046 69.7C339.046 69.9667 339.013 70.1667 338.946 70.3C338.946 70.6333 338.813 70.8667 338.546 71C338.279 71.1333 338.013 71.4 337.746 71.8C337.413 72.1333 337.146 72.3667 336.946 72.5C336.746 72.7 336.479 72.8 336.146 72.8C336.013 72.7333 335.779 72.7667 335.446 72.9ZM388.678 75.9C387.745 76.1 386.878 75.9667 386.078 75.5C385.611 75.2333 385.145 75 384.678 74.8C384.211 74.6667 383.711 74.5667 383.178 74.5C382.511 74.3667 381.845 74.2 381.178 74C380.578 73.8667 379.945 73.6667 379.278 73.4C379.011 73.2667 378.745 73.1333 378.478 73C378.278 72.8667 378.045 72.7 377.778 72.5C377.578 72.2333 377.311 72.0667 376.978 72C376.511 71.8 376.011 71.4667 375.478 71C375.345 70.8667 375.245 70.7333 375.178 70.6C374.911 70.3333 374.611 70.1 374.278 69.9C374.011 69.7 373.711 69.5 373.378 69.3C372.511 68.7667 371.545 68.1333 370.478 67.4C370.278 67.2667 370.111 67.1 369.978 66.9C369.711 66.5667 369.378 66.2667 368.978 66C368.645 65.7333 368.311 65.4667 367.978 65.2L365.278 63.4C365.211 63.3333 365.111 63.3 364.978 63.3C364.845 63.2333 364.711 63.1667 364.578 63.1C363.711 62.7 363.011 62.1333 362.478 61.4C361.945 60.7333 361.445 60.0333 360.978 59.3C360.511 58.5667 360.078 57.8667 359.678 57.2C359.545 57.0667 359.411 56.8667 359.278 56.6C359.011 56.2667 358.778 55.9 358.578 55.5C358.378 55.1 358.211 54.7333 358.078 54.4C357.945 54.0667 357.811 53.7 357.678 53.3L357.378 51.8C357.178 51.2667 357.045 50.7333 356.978 50.2C356.911 49.6 356.811 49.0333 356.678 48.5C356.611 48.1 356.511 47.7 356.378 47.3C356.245 46.8333 356.078 46.4 355.878 46C355.745 45.8 355.645 45.6 355.578 45.4C355.511 45.1333 355.411 44.8667 355.278 44.6C355.211 44.4667 355.178 44.2333 355.178 43.9C355.111 43.3667 355.078 42.8333 355.078 42.3C355.145 41.7667 355.278 41.2667 355.478 40.8L355.778 39.7C355.911 39.3667 356.011 39.0333 356.078 38.7C356.145 38.3667 356.211 38.0667 356.278 37.8C356.278 37.3333 356.211 37 356.078 36.8C356.011 36.6667 355.945 36.5333 355.878 36.4C355.811 36.2 355.745 36.0333 355.678 35.9C355.345 35.2333 355.311 34.6333 355.578 34.1L355.878 33.3C356.078 32.9667 356.178 32.6333 356.178 32.3C356.178 31.2333 356.511 30.1333 357.178 29C357.645 28.2 358.111 27.5667 358.578 27.1C358.978 26.7 359.278 26.3 359.478 25.9C359.745 25.3667 360.111 24.8667 360.578 24.4C361.178 23.8 361.545 23.2667 361.678 22.8C361.811 22.4667 361.978 22.2 362.178 22L363.778 20.4C364.245 19.8 364.245 19.2333 363.778 18.7C363.578 18.4333 363.411 18.1667 363.278 17.9C363.211 17.5667 363.111 17.2667 362.978 17C362.778 15.8667 363.011 14.8667 363.678 14C363.945 13.6667 364.211 13.3667 364.478 13.1C364.811 12.8333 365.178 12.6333 365.578 12.5C365.778 12.4333 365.945 12.3667 366.078 12.3C366.278 12.2333 366.478 12.1667 366.678 12.1C367.011 12.0333 367.345 11.9333 367.678 11.8C368.078 11.6667 368.445 11.5333 368.778 11.4C369.045 11.2667 369.278 11.1667 369.478 11.1C369.678 11.0333 369.911 11 370.178 11C370.445 10.9333 370.678 10.9 370.878 10.9C371.078 10.8333 371.278 10.8 371.478 10.8C372.011 10.7333 372.545 10.4667 373.078 9.99999C374.011 9.26666 374.945 8.53333 375.878 7.8C376.878 7 377.811 6.2 378.678 5.39999C379.211 4.93333 379.778 4.5 380.378 4.1C381.045 3.7 381.711 3.33333 382.378 3C382.845 2.8 383.345 2.63333 383.878 2.5C384.211 2.36666 384.578 2.26667 384.978 2.2C385.378 2.13333 385.745 2.06666 386.078 2L388.178 1.69999C389.111 1.63333 389.978 1.53333 390.778 1.4C391.645 1.26666 392.511 1.13333 393.378 0.999997C393.511 0.999997 393.645 0.999997 393.778 0.999997C393.911 0.933331 394.011 0.899998 394.078 0.899998H395.378C395.845 0.899998 396.278 0.933331 396.678 0.999997C397.078 0.999997 397.478 1.06666 397.878 1.19999C398.411 1.4 398.878 1.66666 399.278 2C399.678 2.26666 400.011 2.66666 400.278 3.2C400.745 3.86666 401.011 4.5 401.078 5.1C401.145 5.5 401.178 5.9 401.178 6.29999C401.245 6.7 401.278 7.1 401.278 7.5V8.4C401.278 8.6 401.378 8.76667 401.578 8.9L402.178 9.2C403.111 9.53333 404.011 9.96667 404.878 10.5C405.745 11.0333 406.578 11.6 407.378 12.2C407.911 12.5333 408.311 12.8667 408.578 13.2C409.045 13.6667 409.478 14.1333 409.878 14.6C410.278 15 410.678 15.4333 411.078 15.9C411.345 16.2333 411.611 16.5667 411.878 16.9C412.145 17.1667 412.411 17.4667 412.678 17.8C412.878 18 413.011 18.1667 413.078 18.3C413.211 18.7 413.445 19.1 413.778 19.5C414.178 20.1667 414.511 20.8333 414.778 21.5C414.978 22.0333 415.178 22.6 415.378 23.2C415.578 23.7333 415.745 24.3 415.878 24.9C415.878 25.1 415.945 25.4 416.078 25.8C416.145 26 416.178 26.2 416.178 26.4C416.245 26.5333 416.278 26.6667 416.278 26.8C416.345 27.2 416.411 27.6 416.478 28C416.611 28.4 416.711 28.8 416.778 29.2C416.845 29.5333 416.911 29.9 416.978 30.3C417.045 30.6333 417.111 31 417.178 31.4C417.245 32 417.345 32.6333 417.478 33.3C417.611 33.9 417.711 34.5 417.778 35.1V35.6C417.778 36.3333 417.811 37.1 417.878 37.9C418.011 38.6333 418.078 39.3667 418.078 40.1C418.078 40.3667 418.078 40.6667 418.078 41C418.078 41.3333 418.045 41.6667 417.978 42C417.911 42.1333 417.878 42.3 417.878 42.5C417.878 43.3 417.811 44.1 417.678 44.9C417.545 45.6333 417.411 46.3667 417.278 47.1C416.811 49.7 416.111 52.3333 415.178 55C415.111 55.2667 415.045 55.5667 414.978 55.9C414.911 56.1667 414.811 56.4667 414.678 56.8L413.178 61.2C413.111 61.4667 412.978 61.7667 412.778 62.1C412.645 62.3667 412.511 62.6667 412.378 63L410.578 66.2C410.178 66.9333 409.678 67.6333 409.078 68.3C408.545 68.9 407.878 69.4333 407.078 69.9C406.278 70.3667 405.545 71 404.878 71.8C404.411 72.4667 403.678 72.8667 402.678 73C402.211 73.0667 401.745 73.1 401.278 73.1C400.878 73.1667 400.478 73.2667 400.078 73.4L399.078 73.7C399.011 73.7 398.945 73.7 398.878 73.7C398.878 73.7667 398.811 73.8 398.678 73.8C397.945 73.9333 397.178 74.1 396.378 74.3C395.645 74.5 394.911 74.6667 394.178 74.8C394.045 74.8667 393.845 74.9 393.578 74.9C393.178 74.9 392.778 74.9333 392.378 75C391.978 75.0667 391.578 75.1667 391.178 75.3L388.678 75.9ZM385.978 65.5C386.378 65.5667 386.745 65.5333 387.078 65.4C387.345 65.2667 387.611 65.2333 387.878 65.3H388.678C389.011 65.3 389.311 65.3 389.578 65.3C389.845 65.3 390.111 65.2333 390.378 65.1C390.578 64.9667 390.945 64.8667 391.478 64.8C392.078 64.6667 392.378 64.6 392.378 64.6C392.911 64.4667 393.445 64.3333 393.978 64.2C394.511 64 395.045 63.7667 395.578 63.5L399.778 61.7C400.311 61.5 400.811 61.2667 401.278 61C401.745 60.6667 402.211 60.3667 402.678 60.1C403.011 59.7667 403.311 59.5333 403.578 59.4C403.978 59.0667 404.278 58.6667 404.478 58.2C404.611 57.8667 404.745 57.5333 404.878 57.2C405.011 56.8667 405.111 56.5333 405.178 56.2C405.445 55.4667 405.678 54.7333 405.878 54C406.078 53.2 406.311 52.4333 406.578 51.7C406.911 50.7 407.211 49.7333 407.478 48.8C407.811 47.8 408.078 46.7667 408.278 45.7C408.345 45.3667 408.411 45 408.478 44.6C408.545 44.2 408.611 43.8 408.678 43.4C408.745 42.9333 408.778 42.4667 408.778 42C408.778 41.5333 408.811 41.0667 408.878 40.6V39.9C408.878 39.4333 408.845 38.9667 408.778 38.5C408.778 38.0333 408.778 37.5667 408.778 37.1C408.711 35.9 408.578 34.7 408.378 33.5C408.178 32.3 407.945 31.1 407.678 29.9C407.545 29.3667 407.411 28.8667 407.278 28.4C407.211 27.8667 407.111 27.3667 406.978 26.9C406.778 25.9667 406.478 25.1 406.078 24.3C405.678 23.4333 405.211 22.6 404.678 21.8C404.611 21.6 404.511 21.5 404.378 21.5C403.911 20.9667 403.411 20.4333 402.878 19.9C402.345 19.3667 401.711 18.9667 400.978 18.7C400.711 18.6333 400.445 18.5 400.178 18.3C399.911 18.1667 399.645 18.0333 399.378 17.9C399.111 17.7667 398.811 17.6667 398.478 17.6C397.345 17.3333 396.111 17.1333 394.778 17C394.711 16.9333 394.611 16.9333 394.478 17C394.345 17.0667 394.278 17.1667 394.278 17.3C394.278 17.4333 394.245 17.6 394.178 17.8C394.178 17.9333 394.178 18.0667 394.178 18.2C394.111 19 394.045 19.8333 393.978 20.7C393.911 21.5 393.911 22.3333 393.978 23.2C393.978 23.5333 393.978 23.9 393.978 24.3C393.978 24.6333 393.945 24.9667 393.878 25.3V26.7C393.811 26.9667 393.778 27.2667 393.778 27.6C393.778 27.8667 393.745 28.1333 393.678 28.4V29C393.611 29.4667 393.578 29.9333 393.578 30.4C393.578 30.8 393.511 31.2667 393.378 31.8C393.311 31.9333 393.278 32.1333 393.278 32.4C393.411 33.0667 393.411 33.7667 393.278 34.5V36.3C393.211 36.7667 393.111 37.2667 392.978 37.8C392.845 38.2667 392.511 38.6667 391.978 39C391.845 39.0667 391.611 39.0667 391.278 39C390.945 38.9333 390.711 38.8667 390.578 38.8C390.111 38.6 389.811 38.3333 389.678 38C389.611 37.8 389.511 37.6 389.378 37.4C389.311 37.2 389.278 37 389.278 36.8C389.211 36.2667 389.111 35.7333 388.978 35.2C388.911 34.6 388.878 34 388.878 33.4C388.878 32.7333 388.878 32.0667 388.878 31.4C388.878 30.7333 388.845 30.0667 388.778 29.4V27.8C388.845 27.5333 388.878 27.2667 388.878 27C388.878 26.6667 388.878 26.3667 388.878 26.1C388.878 25.5667 388.845 25.0333 388.778 24.5C388.778 23.9667 388.778 23.4333 388.778 22.9C388.778 22.5 388.745 22.1333 388.678 21.8C388.678 21.4 388.645 21 388.578 20.6C388.511 20.3333 388.445 20.1 388.378 19.9C388.311 19.7 388.211 19.5 388.078 19.3C387.878 18.7 387.478 18.2333 386.878 17.9C386.478 17.5667 386.045 17.5667 385.578 17.9C385.311 18.1 385.045 18.3 384.778 18.5C384.578 18.6333 384.345 18.8333 384.078 19.1L383.678 19.5C383.278 19.7 382.911 19.9667 382.578 20.3C382.311 20.5667 382.011 20.8667 381.678 21.2C381.478 21.4 381.278 21.6 381.078 21.8C380.878 21.9333 380.645 22.0667 380.378 22.2C379.978 22.4667 379.711 22.6667 379.578 22.8C379.245 23.0667 378.911 23.3333 378.578 23.6C378.245 23.8 377.911 24.0667 377.578 24.4C377.445 24.5333 377.311 24.6333 377.178 24.7C377.045 24.7667 376.911 24.8667 376.778 25C376.645 25.1333 376.511 25.2667 376.378 25.4C375.911 25.8667 375.411 26.3667 374.878 26.9C374.411 27.4333 373.911 27.9333 373.378 28.4C373.045 28.7333 372.711 29.1 372.378 29.5C372.045 29.8333 371.745 30.2 371.478 30.6C371.411 30.8 371.245 31.0333 370.978 31.3L370.278 32.2C369.811 32.9333 369.411 33.7 369.078 34.5C368.745 35.3 368.445 36.1333 368.178 37C367.978 37.6 367.878 38.2 367.878 38.8C367.811 39.4 367.778 40.0333 367.778 40.7C367.778 41.3 367.845 41.9333 367.978 42.6C367.978 42.7333 367.978 42.9 367.978 43.1C368.045 43.2333 368.045 43.3667 367.978 43.5C367.978 44.0333 368.011 44.5667 368.078 45.1C368.145 45.5667 368.178 46.0667 368.178 46.6C368.245 46.7333 368.278 46.9 368.278 47.1C368.345 47.2333 368.411 47.3667 368.478 47.5C368.611 47.7 368.745 47.9 368.878 48.1C369.011 48.3 369.078 48.5333 369.078 48.8C369.078 48.8667 369.145 48.9667 369.278 49.1C369.411 49.3667 369.478 49.5667 369.478 49.7C369.745 50.1667 369.911 50.6 369.978 51C370.111 51.4667 370.311 51.8333 370.578 52.1L371.078 52.7C371.078 52.9 371.145 53.1 371.278 53.3C371.411 53.4333 371.511 53.5667 371.578 53.7C371.845 53.9667 371.978 54.2333 371.978 54.5C372.111 54.9667 372.311 55.3333 372.578 55.6C372.711 55.7333 372.845 55.8667 372.978 56C373.111 56.1333 373.211 56.2667 373.278 56.4C373.611 56.7333 373.778 57.0667 373.778 57.4C373.778 57.6 373.811 57.7333 373.878 57.8C374.078 57.8667 374.211 58 374.278 58.2C374.345 58.4 374.411 58.5667 374.478 58.7C374.478 58.7667 374.478 58.8 374.478 58.8C374.545 58.8 374.578 58.8333 374.578 58.9C374.578 59.0333 374.878 59.3 375.478 59.7C376.078 60.1 376.411 60.2667 376.478 60.2L376.678 60C376.745 60 376.778 60.0333 376.778 60.1H376.878C377.345 60.4333 377.511 60.8333 377.378 61.3C377.245 61.3 377.278 61.4 377.478 61.6L377.778 61.8L377.878 61.9C378.145 62.2333 378.545 62.5667 379.078 62.9C379.211 62.9667 379.378 63 379.578 63L379.978 62.9C380.578 62.7667 381.045 63.0333 381.378 63.7C381.378 63.8333 381.478 64 381.678 64.2C382.145 64.4667 382.611 64.6667 383.078 64.8C383.611 64.9333 384.111 65.0667 384.578 65.2C384.845 65.2667 385.078 65.3333 385.278 65.4C385.478 65.4 385.711 65.4333 385.978 65.5ZM432.934 78.9C432.334 78.7 431.868 78.3 431.534 77.7L431.234 76.6C431.168 76.2667 431.134 75.9333 431.134 75.6C431.134 75.2667 431.101 74.9333 431.034 74.6C430.968 74.3333 430.901 74.0667 430.834 73.8C430.834 73.6 430.768 73.4 430.634 73.2C430.501 72.9333 430.368 72.6667 430.234 72.4C430.101 72.1333 429.968 71.8667 429.834 71.6C429.101 70 428.868 68.4667 429.134 67V66.5C429.201 65.7 429.268 64.9333 429.334 64.2C429.401 63.4 429.468 62.6 429.534 61.8C429.534 61.5333 429.534 61.2667 429.534 61C429.601 60.7333 429.634 60.4667 429.634 60.2C429.634 60 429.634 59.8 429.634 59.6C429.701 59.4 429.734 59.2333 429.734 59.1C429.734 58.7667 429.734 58.4 429.734 58C429.801 57.6 429.834 57.2333 429.834 56.9V56.3C429.768 55.2333 429.734 54.2 429.734 53.2C429.734 52.1333 429.734 51.0667 429.734 50C429.734 49.6667 429.734 49.3333 429.734 49C429.734 48.6 429.701 48.2333 429.634 47.9C429.568 47.7667 429.534 47.5667 429.534 47.3C429.601 46.8333 429.601 46.4 429.534 46C429.534 45.6 429.534 45.2 429.534 44.8C429.534 44.5333 429.534 44.3 429.534 44.1C429.534 43.8333 429.568 43.6 429.634 43.4C429.701 42.7333 429.701 42.1 429.634 41.5C429.568 40.7 429.501 39.9 429.434 39.1C429.368 38.3 429.268 37.5333 429.134 36.8C429.001 35.6667 428.868 34.5333 428.734 33.4C428.668 32.2667 428.668 31.1333 428.734 30V27C428.734 26.6667 428.734 26.3333 428.734 26C428.801 25.6667 428.834 25.3667 428.834 25.1V24.3C428.768 23.7667 428.734 23.2333 428.734 22.7C428.801 22.1 428.868 21.5 428.934 20.9V19.8C428.934 18.8667 428.934 17.9333 428.934 17C429.001 16.0667 429.034 15.1667 429.034 14.3C429.034 13.7667 429.034 13.2667 429.034 12.8C429.034 12.2667 428.968 11.7667 428.834 11.3C428.768 10.5 428.834 9.63333 429.034 8.7C429.234 8.16666 429.468 7.66666 429.734 7.19999C430.001 6.73333 430.301 6.3 430.634 5.9C431.834 4.5 433.401 3.8 435.334 3.8C435.934 3.86666 436.501 4 437.034 4.2C437.634 4.33333 438.168 4.6 438.634 5C438.768 5.06667 438.968 5.23333 439.234 5.5C439.568 5.76667 439.934 6.03333 440.334 6.29999C440.801 6.5 441.268 6.66666 441.734 6.79999C442.268 6.86666 442.801 6.96666 443.334 7.1C443.934 7.23333 444.501 7.36667 445.034 7.5C445.234 7.56666 445.501 7.6 445.834 7.6C446.168 7.6 446.434 7.5 446.634 7.3C446.768 7.16666 446.901 7.06666 447.034 7C447.234 6.86666 447.434 6.76666 447.634 6.7C448.434 6.23333 449.168 6.2 449.834 6.6C450.034 6.66666 450.201 6.76666 450.334 6.9C450.534 6.96666 450.701 7.03333 450.834 7.1C451.568 7.43333 452.134 7.83333 452.534 8.3C452.868 8.7 453.301 8.96666 453.834 9.09999C454.168 9.16666 454.434 9.26666 454.634 9.4C454.901 9.53333 455.168 9.73333 455.434 9.99999C455.701 10.2 455.968 10.3667 456.234 10.5C456.568 10.6333 456.868 10.7667 457.134 10.9C457.668 10.9667 458.101 11.2667 458.434 11.8C458.701 12.3333 459.134 12.7 459.734 12.9C460.068 12.9667 460.401 13.1667 460.734 13.5C460.868 13.7 461.201 13.9333 461.734 14.2C462.068 14.2667 462.334 14.4333 462.534 14.7C462.801 14.9 463.034 15.1667 463.234 15.5L463.434 15.8C463.901 16.8 464.668 17.7333 465.734 18.6C466.134 18.9333 466.501 19.3333 466.834 19.8C467.168 20.2 467.401 20.6667 467.534 21.2C467.668 21.4667 467.801 21.7333 467.934 22C468.134 22.2667 468.301 22.5667 468.434 22.9C468.568 23.1 468.668 23.3 468.734 23.5C468.801 23.7 468.868 23.9333 468.934 24.2C469.001 24.4667 469.068 24.7 469.134 24.9C469.201 25.1 469.268 25.3333 469.334 25.6C469.401 25.7333 469.434 25.9 469.434 26.1C469.434 26.2333 469.468 26.3667 469.534 26.5C469.734 27.2333 469.868 28 469.934 28.8C470.068 29.6 470.168 30.4 470.234 31.2C470.301 31.6667 470.301 32.1333 470.234 32.6C470.234 33.0667 470.234 33.5667 470.234 34.1C470.234 34.4333 470.201 34.8 470.134 35.2C470.134 35.5333 470.101 35.8667 470.034 36.2C470.034 36.4 469.968 36.6333 469.834 36.9C469.234 38.7 468.268 40.3 466.934 41.7C466.668 41.9667 466.401 42.2667 466.134 42.6C465.868 42.8667 465.601 43.1333 465.334 43.4C464.934 43.8 464.534 44.1667 464.134 44.5C463.734 44.8333 463.334 45.1667 462.934 45.5L462.634 45.8C462.101 46.0667 461.568 46.3333 461.034 46.6C460.501 46.8667 459.934 47.0667 459.334 47.2C459.134 47.2 459.001 47.2333 458.934 47.3C458.468 47.5667 457.934 47.7 457.334 47.7C456.801 47.7 456.268 47.6667 455.734 47.6C455.468 47.5333 455.201 47.5 454.934 47.5C454.734 47.4333 454.501 47.4 454.234 47.4C453.368 47.4 452.534 47.4333 451.734 47.5C450.934 47.5667 450.101 47.6667 449.234 47.8L444.634 48.5C444.434 48.5 444.201 48.5333 443.934 48.6C443.734 48.6 443.501 48.6333 443.234 48.7C442.768 48.7667 442.301 48.8667 441.834 49C441.434 49.0667 441.001 49.0667 440.534 49C440.334 49 440.234 49.1333 440.234 49.4V51.1C440.101 51.8333 440.101 52.5667 440.234 53.3C440.368 53.9 440.301 54.3667 440.034 54.7C439.834 55.1667 439.801 55.6667 439.934 56.2C440.068 56.8 440.168 57.4333 440.234 58.1C440.368 58.7 440.501 59.3 440.634 59.9C440.701 60.2333 440.734 60.5667 440.734 60.9C440.801 61.2333 440.834 61.5667 440.834 61.9C440.968 63.3 441.168 64.7 441.434 66.1C441.568 66.5 441.634 66.9 441.634 67.3C441.701 67.6333 441.768 68 441.834 68.4C441.834 68.8667 441.801 69.2333 441.734 69.5C441.668 69.7 441.601 69.9333 441.534 70.2C441.534 70.4 441.468 70.6 441.334 70.8L441.034 71.5C440.901 71.6333 440.768 71.8333 440.634 72.1C440.368 72.6333 439.901 73.0667 439.234 73.4C438.434 73.7333 437.701 73.8667 437.034 73.8C436.701 73.8 436.468 73.8333 436.334 73.9C436.001 73.9 435.801 74.0333 435.734 74.3C435.668 74.4333 435.601 74.6 435.534 74.8C435.468 75 435.401 75.1667 435.334 75.3C435.334 75.5667 435.301 75.8333 435.234 76.1C435.234 76.4333 435.201 76.7667 435.134 77.1C435.068 77.6333 434.801 78.1333 434.334 78.6C433.934 79 433.468 79.1 432.934 78.9ZM442.034 39.8C442.434 39.8 442.801 39.8 443.134 39.8C443.534 39.7333 443.934 39.6667 444.334 39.6C444.801 39.4667 445.268 39.3667 445.734 39.3C446.201 39.2333 446.668 39.1667 447.134 39.1C448.068 38.9667 448.968 38.7667 449.834 38.5C450.101 38.4333 450.368 38.4 450.634 38.4C450.901 38.3333 451.168 38.3 451.434 38.3C451.901 38.3 452.234 38.2667 452.434 38.2C452.901 38.0667 453.334 38 453.734 38C454.201 38 454.701 38 455.234 38H456.734C457.534 37.9333 458.168 37.6 458.634 37L459.434 36.1C459.701 35.7667 459.934 35.4333 460.134 35.1C460.401 34.7 460.568 34.2667 460.634 33.8C460.768 32.8 460.734 31.9 460.534 31.1C460.334 30.3 460.101 29.5333 459.834 28.8C459.568 28 459.234 27.2667 458.834 26.6C458.434 25.7333 457.834 25.0667 457.034 24.6C456.768 24.5333 456.568 24.3333 456.434 24C456.301 23.6 456.068 23.3 455.734 23.1C455.668 23.0333 455.601 22.9667 455.534 22.9C455.468 22.8333 455.368 22.7667 455.234 22.7C454.968 22.4333 454.601 22.3 454.134 22.3C453.868 22.3 453.568 22.2667 453.234 22.2C452.968 22.0667 452.701 21.9667 452.434 21.9C452.168 21.7667 451.901 21.6333 451.634 21.5C451.434 21.3667 451.234 21.2333 451.034 21.1C450.368 20.7 449.634 20.5 448.834 20.5C448.234 20.5 447.568 20.4 446.834 20.2C446.101 19.7333 445.334 19.4667 444.534 19.4C444.401 19.4 444.201 19.3333 443.934 19.2L443.134 18.9C442.734 18.7 442.401 18.6 442.134 18.6C441.268 18.3333 440.634 18.6333 440.234 19.5C440.168 19.7 440.101 19.9333 440.034 20.2C439.968 20.4 439.901 20.6333 439.834 20.9C439.768 21.4333 439.701 21.9667 439.634 22.5C439.568 23.0333 439.501 23.5667 439.434 24.1C439.368 24.5 439.301 24.9 439.234 25.3C439.168 25.7 439.134 26.1 439.134 26.5C439.068 27.3667 439.034 28.2333 439.034 29.1C439.101 29.9667 439.201 30.8667 439.334 31.8V32.8C439.334 33.2667 439.334 33.7333 439.334 34.2C439.401 34.6667 439.468 35.1333 439.534 35.6C439.601 35.8 439.634 36.0667 439.634 36.4L439.934 39.1C439.934 39.5 440.134 39.7 440.534 39.7C440.801 39.7667 441.034 39.8 441.234 39.8C441.501 39.8 441.768 39.8 442.034 39.8Z" fill="black"/>
</svg>
